<svg xmlns="http://www.w3.org/2000/svg" width="1em" height="1em" fill="none" viewBox="0 0 24 24"><path fill="#32D10A" d="M2.5 2.5a1 1 0 0 1 1-1h12.865a5.24 5.24 0 0 1 3.631 1.447A4.848 4.848 0 0 1 21.5 6.441V21.5a1 1 0 0 1-1 1H7.635a5.24 5.24 0 0 1-3.63-1.447A4.849 4.849 0 0 1 2.5 17.559V2.5Z"/><path fill="#fff" d="M6.75 6.75h8.114a2.386 2.386 0 0 1 2.386 2.386v8.114H9.136a2.386 2.386 0 0 1-2.386-2.386V6.75Zm5.927 1.432v3.102h3.141V9.136a.955.955 0 0 0-.954-.954h-2.187Zm-1.432 0H8.182v3.102h3.063V8.182Zm-3.063 4.534v2.148c0 .527.427.954.954.954h2.109v-3.102H8.182Zm4.495 3.102h3.141v-3.102h-3.141v3.102Z"/></svg>